<svg width="37" height="37" viewBox="0 0 37 37" fill="none" xmlns="http://www.w3.org/2000/svg">
<path d="M18.67 36.34C28.4289 36.34 36.34 28.4289 36.34 18.67C36.34 8.91113 28.4289 1 18.67 1C8.91113 1 1 8.91113 1 18.67C1 28.4289 8.91113 36.34 18.67 36.34Z" stroke="#B29D84" stroke-miterlimit="10"/>
<path d="M26.05 15.62C26.05 15 25.92 14.38 25.7 13.79C25.51 13.3 25.22 12.85 24.84 12.48C24.47 12.11 24.02 11.81 23.53 11.62C22.95 11.4 22.34 11.29 21.73 11.27C20.94 11.23 20.68 11.22 18.67 11.22C16.66 11.22 16.4 11.22 15.61 11.27C14.99 11.28 14.38 11.4 13.81 11.62C13.32 11.81 12.87 12.1 12.49 12.48C12.11 12.86 11.82 13.3 11.63 13.8C11.41 14.38 11.3 14.99 11.28 15.6C11.24 16.39 11.23 16.65 11.23 18.66C11.23 20.67 11.23 20.93 11.28 21.72C11.29 22.34 11.41 22.95 11.63 23.52C11.82 24.01 12.11 24.46 12.49 24.83C12.86 25.2 13.31 25.5 13.81 25.69C14.39 25.92 14.99 26.04 15.61 26.06C16.4 26.1 16.66 26.11 18.67 26.11C20.68 26.11 20.94 26.11 21.73 26.06C22.35 26.05 22.96 25.93 23.53 25.71C24.02 25.52 24.47 25.23 24.84 24.85C25.21 24.48 25.51 24.03 25.7 23.54C25.92 22.96 26.03 22.35 26.05 21.74C26.09 20.95 26.1 20.69 26.1 18.68C26.1 16.67 26.1 16.41 26.05 15.62ZM18.67 22.46C16.56 22.46 14.86 20.75 14.86 18.65C14.86 16.55 16.57 14.84 18.67 14.84C19.68 14.84 20.65 15.24 21.37 15.96C22.09 16.68 22.49 17.65 22.49 18.66C22.49 19.67 22.09 20.64 21.37 21.36C20.65 22.08 19.68 22.48 18.67 22.48V22.46ZM22.63 15.58C22.51 15.58 22.4 15.56 22.29 15.51C22.18 15.47 22.08 15.4 22 15.32C21.92 15.24 21.85 15.14 21.81 15.03C21.77 14.92 21.74 14.81 21.74 14.69C21.74 14.57 21.76 14.46 21.81 14.35C21.85 14.24 21.92 14.14 22 14.06C22.08 13.98 22.18 13.91 22.29 13.87C22.4 13.83 22.51 13.8 22.63 13.8C22.75 13.8 22.86 13.82 22.97 13.87C23.08 13.91 23.18 13.98 23.26 14.06C23.34 14.14 23.41 14.24 23.45 14.35C23.49 14.46 23.52 14.57 23.52 14.69C23.52 15.18 23.12 15.58 22.63 15.58V15.58Z" fill="#B29D84"/>
<path d="M18.6699 21.13C20.0399 21.13 21.1499 20.02 21.1499 18.65C21.1499 17.28 20.0399 16.17 18.6699 16.17C17.2999 16.17 16.1899 17.28 16.1899 18.65C16.1899 20.02 17.2999 21.13 18.6699 21.13V21.13Z" fill="#B29D84"/>
</svg>
