<svg width="37" height="37" viewBox="0 0 37 37" fill="none" xmlns="http://www.w3.org/2000/svg">
<path d="M18.67 36.34C28.4289 36.34 36.34 28.4289 36.34 18.67C36.34 8.91113 28.4289 1 18.67 1C8.91113 1 1 8.91113 1 18.67C1 28.4289 8.91113 36.34 18.67 36.34Z" stroke="#B29D84" stroke-miterlimit="10"/>
<path d="M14.64 15.34H11.73V24.83H14.64V15.34Z" fill="#B29D84"/>
<path d="M13.2202 14.01C14.1867 14.01 14.9702 13.2265 14.9702 12.26C14.9702 11.2935 14.1867 10.51 13.2202 10.51C12.2537 10.51 11.4702 11.2935 11.4702 12.26C11.4702 13.2265 12.2537 14.01 13.2202 14.01Z" fill="#B29D84"/>
<path d="M25.7901 24.74H22.8801V20.08C22.8801 19 22.8801 17.5 21.3001 17.5C19.7201 17.5 19.5501 18.75 19.5501 19.91V24.65H16.6401V15.34H19.3901V16.59H19.4701C19.8901 15.84 20.8801 15.01 22.3001 15.01C25.3001 15.01 25.8801 17.01 25.8801 19.59V24.75H25.8001L25.7901 24.74Z" fill="#B29D84"/>
</svg>
