<?xml version="1.0" encoding="UTF-8"?><svg id="Layer_1" xmlns="http://www.w3.org/2000/svg" viewBox="0 0 125.17 124.51"><defs><style>.cls-1{fill:#fff;}.cls-2{fill:#ede9e3;}.cls-3{fill:none;stroke:#9b8c7b;stroke-linecap:round;stroke-linejoin:round;stroke-width:1.5px;}.cls-4{fill:#9b8c7b;}.cls-5{fill:#b29d84;}.cls-6{fill:#938270;}</style></defs><path class="cls-5" d="M111.77,52.13v54.55c0,.65-.14,1.29-.4,1.89-.27,.6-.66,1.14-1.15,1.59h-.04c-.94,.83-2.18,1.29-3.46,1.29H17.96c-1.28,0-2.52-.46-3.46-1.29h-.04c-.5-.45-.89-.99-1.17-1.59-.27-.6-.42-1.24-.42-1.9V52.13c0-1.51,.35-2.99,1.02-4.36,.67-1.37,1.63-2.58,2.84-3.55L56.74,11.89c1.56-1.28,3.55-1.98,5.6-1.98s4.04,.7,5.6,1.98l40.01,32.33c1.2,.98,2.16,2.19,2.82,3.56,.66,1.37,1,2.85,.99,4.36Z"/><path class="cls-1" d="M90.92,22.24L25.31,34.17l11.2,61.63,65.61-11.92-11.2-61.63Z"/><path class="cls-2" d="M13.16,53.35l44.43,18.76c1.57,.67,3.25,1.01,4.96,1.01s3.39-.34,4.96-1.01l44.39-18.76v36.34H13.16V53.35Z"/><path class="cls-6" d="M56.96,78.02L14.79,113.81h-.04c-.5-.47-.89-1.04-1.17-1.66-.27-.63-.42-1.3-.42-1.99V52.95l42.37,24.24,1.43,.83Z"/><path class="cls-6" d="M111.9,52.95v57.16c0,.68-.14,1.36-.4,1.98-.27,.63-.66,1.19-1.14,1.67h-.04l-42.17-35.74,1.43-.83,42.33-24.24Z"/><path class="cls-4" d="M111.9,53.35v57.16c0,.68-.14,1.36-.4,1.98-.27,.63-.66,1.19-1.14,1.67h-.04l-42.17-35.74,1.43-.83,42.33-24.24Z"/><path class="cls-4" d="M56.96,78.42L14.79,114.2h-.04c-.5-.47-.89-1.04-1.17-1.66-.27-.63-.42-1.3-.42-1.99V53.35l42.37,24.24,1.43,.83Z"/><path class="cls-2" d="M56.96,78.42L14.79,114.2h-.04l40.78-36.58,1.43,.79Z"/><path class="cls-2" d="M110.36,114.16h-.04l-42.17-35.74,1.43-.83,40.78,36.58Z"/><path class="cls-6" d="M110.32,113.81c-.94,.87-2.17,1.35-3.45,1.35H18.24c-1.28,0-2.51-.48-3.45-1.35l42.17-35.78c1.56-1.34,3.54-2.08,5.59-2.08s4.04,.74,5.59,2.08l42.17,35.78Z"/><path class="cls-5" d="M110.32,114.2c-.94,.87-2.17,1.35-3.45,1.35H18.24c-1.28,0-2.51-.48-3.45-1.35l42.17-35.78c1.56-1.34,3.54-2.08,5.59-2.08s4.04,.74,5.59,2.08l42.17,35.78Z"/><path class="cls-3" d="M54.34,51.6l4.98,5.05,9.96-10.82"/></svg>