<svg width="195" height="175" viewBox="0 0 195 175" fill="none" xmlns="http://www.w3.org/2000/svg">
<path d="M54.875 169.843H61.9425C62.8797 169.843 63.7785 169.47 64.4412 168.808C65.1039 168.145 65.4762 167.246 65.4762 166.309V125.671C65.4762 124.734 65.1039 123.835 64.4412 123.172C63.7785 122.509 62.8797 122.137 61.9425 122.137H54.875V169.843Z" fill="white" stroke="#B29E85" stroke-width="2.8" stroke-linecap="round" stroke-linejoin="round"/>
<path d="M106.119 116.837C107.435 103.634 109.186 75.3137 98.1665 75.3137C96.0581 75.3137 94.0361 76.1512 92.5453 77.6421C91.0544 79.1329 90.2169 81.1549 90.2169 83.2633V85.9149C90.2169 105.351 81.7906 125.676 65.4648 125.676V166.314H67.5503C77.7408 166.314 82.5595 173.382 100.818 173.382H131.74C133.614 173.382 135.412 172.637 136.737 171.312C138.063 169.986 138.807 168.189 138.807 166.314C138.807 164.44 138.063 162.642 136.737 161.317C135.412 159.991 133.614 159.247 131.74 159.247H135.273C137.148 159.247 138.946 158.502 140.271 157.177C141.596 155.851 142.341 154.054 142.341 152.179C142.341 150.305 141.596 148.507 140.271 147.182C138.946 145.856 137.148 145.112 135.273 145.112H138.807C140.682 145.112 142.479 144.367 143.805 143.042C145.13 141.716 145.875 139.919 145.875 138.044C145.875 136.17 145.13 134.372 143.805 133.047C142.479 131.721 140.682 130.977 138.807 130.977H142.341C144.215 130.977 146.013 130.232 147.338 128.907C148.664 127.581 149.408 125.784 149.408 123.909C149.408 122.035 148.664 120.237 147.338 118.912C146.013 117.586 144.215 116.842 142.341 116.842L106.119 116.837Z" fill="white"/>
<path d="M99.0508 116.837H106.118" stroke="#B29E85" stroke-width="2.8" stroke-linecap="round" stroke-linejoin="round"/>
<path d="M131.741 159.241H128.207" stroke="#B29E85" stroke-width="2.8" stroke-linecap="round" stroke-linejoin="round"/>
<path d="M135.272 145.107H131.738" stroke="#B29E85" stroke-width="2.8" stroke-linecap="round" stroke-linejoin="round"/>
<path d="M138.807 130.971H135.273" stroke="#B29E85" stroke-width="2.8" stroke-linecap="round" stroke-linejoin="round"/>
<path d="M106.119 116.837C107.435 103.634 109.186 75.3137 98.1665 75.3137C96.0581 75.3137 94.0361 76.1512 92.5453 77.6421C91.0544 79.1329 90.2169 81.1549 90.2169 83.2633V85.9149C90.2169 105.351 81.7906 125.676 65.4648 125.676V166.314H67.5503C77.7408 166.314 82.5595 173.382 100.818 173.382H131.74C133.614 173.382 135.412 172.637 136.737 171.312C138.063 169.986 138.807 168.189 138.807 166.314C138.807 164.44 138.063 162.642 136.737 161.317C135.412 159.991 133.614 159.247 131.74 159.247H135.273C137.148 159.247 138.946 158.502 140.271 157.177C141.596 155.851 142.341 154.054 142.341 152.179C142.341 150.305 141.596 148.507 140.271 147.182C138.946 145.856 137.148 145.112 135.273 145.112H138.807C140.682 145.112 142.479 144.367 143.805 143.042C145.13 141.716 145.875 139.919 145.875 138.044C145.875 136.17 145.13 134.372 143.805 133.047C142.479 131.721 140.682 130.977 138.807 130.977H142.341C144.215 130.977 146.013 130.232 147.338 128.907C148.664 127.581 149.408 125.784 149.408 123.909C149.408 122.035 148.664 120.237 147.338 118.912C146.013 117.586 144.215 116.842 142.341 116.842L106.119 116.837Z" stroke="#B29E85" stroke-width="2.8" stroke-linecap="round" stroke-linejoin="round"/>
<path d="M30.1406 118.603H54.8769V173.379H30.1406V118.603Z" fill="#EDE9E3"/>
<path d="M30.1406 118.603H54.8769V173.379H30.1406V118.603Z" stroke="#B29E85" stroke-width="2.8" stroke-linecap="round" stroke-linejoin="round"/>
<path d="M99.3904 3.66708L104.799 14.6238C105.012 15.0595 105.329 15.4363 105.721 15.7214C106.114 16.0064 106.57 16.191 107.05 16.259L119.145 18.018C119.696 18.0982 120.215 18.3312 120.641 18.6907C121.068 19.0501 121.385 19.5217 121.557 20.0521C121.73 20.5825 121.75 21.1505 121.616 21.692C121.483 22.2334 121.2 22.7266 120.801 23.1159L112.048 31.6474C111.704 31.985 111.446 32.4006 111.297 32.859C111.147 33.3174 111.111 33.805 111.19 34.2806L113.254 46.3301C113.352 46.8807 113.292 47.4477 113.084 47.9664C112.875 48.4851 112.524 48.9347 112.072 49.264C111.62 49.5933 111.085 49.7891 110.527 49.829C109.969 49.869 109.412 49.7515 108.917 49.4899L98.1001 43.797C97.671 43.5712 97.1934 43.4532 96.7085 43.4532C96.2236 43.4532 95.7459 43.5712 95.3168 43.797L84.4997 49.4847C84.0054 49.7462 83.4476 49.8637 82.8898 49.8237C82.332 49.7838 81.7967 49.588 81.3447 49.2587C80.8928 48.9294 80.5423 48.4798 80.3334 47.9611C80.1244 47.4424 80.0653 46.8755 80.1628 46.3248L82.2272 34.2753C82.307 33.7997 82.2706 33.3119 82.1211 32.8534C81.9716 32.3949 81.7135 31.9794 81.3688 31.6421L72.6292 23.1053C72.2298 22.7161 71.9473 22.2228 71.8137 21.6814C71.68 21.14 71.7005 20.572 71.8728 20.0416C72.0451 19.5112 72.3624 19.0396 72.7888 18.6801C73.2152 18.3207 73.7336 18.0877 74.2855 18.0075L86.3798 16.2485C86.86 16.1805 87.3163 15.9959 87.7088 15.7108C88.1012 15.4258 88.4179 15.0489 88.6311 14.6133L94.0292 3.66708C94.2759 3.16671 94.6577 2.74538 95.1314 2.45076C95.6052 2.15614 96.1519 2 96.7098 2C97.2677 2 97.8144 2.15614 98.2881 2.45076C98.7619 2.74538 99.1437 3.16671 99.3904 3.66708Z" fill="#EDE9E3"/>
<path d="M99.3904 3.66708L104.799 14.6238C105.012 15.0595 105.329 15.4363 105.721 15.7214C106.114 16.0064 106.57 16.191 107.05 16.259L119.145 18.018C119.696 18.0982 120.215 18.3312 120.641 18.6907C121.068 19.0501 121.385 19.5217 121.557 20.0521C121.73 20.5825 121.75 21.1505 121.616 21.692C121.483 22.2334 121.2 22.7266 120.801 23.1159L112.048 31.6474C111.704 31.985 111.446 32.4006 111.297 32.859C111.147 33.3174 111.111 33.805 111.19 34.2806L113.254 46.3301C113.352 46.8807 113.292 47.4477 113.084 47.9664C112.875 48.4851 112.524 48.9347 112.072 49.264C111.62 49.5933 111.085 49.7891 110.527 49.829C109.969 49.869 109.412 49.7515 108.917 49.4899L98.1001 43.797C97.671 43.5712 97.1934 43.4532 96.7085 43.4532C96.2236 43.4532 95.7459 43.5712 95.3168 43.797L84.4997 49.4847C84.0054 49.7462 83.4476 49.8637 82.8898 49.8237C82.332 49.7838 81.7967 49.588 81.3447 49.2587C80.8928 48.9294 80.5423 48.4798 80.3334 47.9611C80.1244 47.4424 80.0653 46.8755 80.1628 46.3248L82.2272 34.2753C82.307 33.7997 82.2706 33.3119 82.1211 32.8534C81.9716 32.3949 81.7135 31.9794 81.3688 31.6421L72.6292 23.1053C72.2298 22.7161 71.9473 22.2228 71.8137 21.6814C71.68 21.14 71.7005 20.572 71.8728 20.0416C72.0451 19.5112 72.3624 19.0396 72.7888 18.6801C73.2152 18.3207 73.7336 18.0877 74.2855 18.0075L86.3798 16.2485C86.86 16.1805 87.3163 15.9959 87.7088 15.7108C88.1012 15.4258 88.4179 15.0489 88.6311 14.6133L94.0292 3.66708C94.2759 3.16671 94.6577 2.74538 95.1314 2.45076C95.6052 2.15614 96.1519 2 96.7098 2C97.2677 2 97.8144 2.15614 98.2881 2.45076C98.7619 2.74538 99.1437 3.16671 99.3904 3.66708V3.66708Z" stroke="#B29E85" stroke-width="2.8" stroke-linecap="round" stroke-linejoin="round"/>
<path d="M37.0027 27.3053L45.55 32.6901C45.8888 32.9045 46.2749 33.0328 46.6746 33.064C47.0743 33.0952 47.4756 33.0283 47.8435 32.8692L57.1282 28.8799C57.5519 28.6974 58.0182 28.6373 58.4744 28.7062C58.9305 28.7752 59.3582 28.9705 59.709 29.2701C60.0599 29.5697 60.3198 29.9615 60.4593 30.4012C60.5989 30.8409 60.6125 31.3109 60.4987 31.758L58.0182 41.5535C57.9193 41.941 57.9155 42.3466 58.0072 42.7359C58.0989 43.1252 58.2833 43.4865 58.5448 43.7891L65.2095 51.3858C65.5136 51.7327 65.7146 52.1578 65.7898 52.6129C65.865 53.0681 65.8114 53.5352 65.6349 53.9615C65.4585 54.3877 65.1664 54.7561 64.7915 55.025C64.4166 55.2939 63.974 55.4526 63.5137 55.4831L53.4338 56.1493C53.0338 56.176 52.6463 56.2995 52.3046 56.5091C51.9629 56.7187 51.6772 57.0082 51.4721 57.3526L46.3058 66.0422C46.0702 66.4389 45.7283 66.7616 45.3187 66.9739C44.9091 67.1862 44.4483 67.2796 43.9883 67.2434C43.5284 67.2072 43.0878 67.043 42.7165 66.7692C42.3451 66.4955 42.0579 66.1232 41.8873 65.6946L38.135 56.3125C37.987 55.9402 37.7504 55.6096 37.4457 55.3494C37.141 55.0892 36.7774 54.9073 36.3865 54.8195L26.5463 52.5839C26.0966 52.4822 25.6844 52.2568 25.3562 51.933C25.0281 51.6092 24.7971 51.2 24.6894 50.7517C24.5817 50.3035 24.6017 49.834 24.7469 49.3965C24.8922 48.959 25.157 48.5709 25.5114 48.276L33.2741 41.8089C33.5827 41.5532 33.8242 41.2259 33.9775 40.8555C34.1308 40.4852 34.1912 40.083 34.1536 39.6839L33.2293 29.6225C33.1872 29.1638 33.2742 28.7026 33.4805 28.2908C33.6867 27.879 34.0039 27.5331 34.3964 27.2921C34.7889 27.0511 35.2409 26.9246 35.7014 26.9269C36.162 26.9292 36.6127 27.0603 37.0027 27.3053Z" fill="#EDE9E3"/>
<path d="M37.0027 27.3053L45.55 32.6901C45.8889 32.9045 46.2749 33.0328 46.6746 33.064C47.0743 33.0952 47.4756 33.0283 47.8435 32.8692L57.1282 28.8799C57.5519 28.6974 58.0182 28.6373 58.4744 28.7062C58.9305 28.7752 59.3582 28.9705 59.709 29.2701C60.0599 29.5697 60.3198 29.9615 60.4593 30.4012C60.5989 30.8409 60.6125 31.3109 60.4987 31.758L58.0182 41.5535C57.9193 41.941 57.9155 42.3466 58.0072 42.7359C58.0989 43.1252 58.2833 43.4865 58.5448 43.7891L65.2095 51.3858C65.5136 51.7327 65.7146 52.1578 65.7898 52.6129C65.865 53.0681 65.8114 53.5352 65.6349 53.9615C65.4585 54.3877 65.1664 54.7561 64.7915 55.025C64.4166 55.2939 63.974 55.4526 63.5137 55.4831L53.4338 56.1493C53.0338 56.176 52.6463 56.2995 52.3046 56.5091C51.9629 56.7187 51.6772 57.0082 51.4721 57.3526L46.3058 66.0422C46.0702 66.4389 45.7283 66.7616 45.3187 66.9739C44.9091 67.1862 44.4483 67.2796 43.9883 67.2434C43.5284 67.2072 43.0878 67.043 42.7165 66.7692C42.3451 66.4955 42.0579 66.1232 41.8873 65.6946L38.135 56.3125C37.987 55.9402 37.7504 55.6096 37.4457 55.3494C37.141 55.0892 36.7774 54.9073 36.3865 54.8195L26.5463 52.5839C26.0966 52.4822 25.6844 52.2568 25.3562 51.933C25.0281 51.6092 24.7971 51.2 24.6894 50.7517C24.5817 50.3035 24.6017 49.834 24.7469 49.3965C24.8922 48.959 25.157 48.5709 25.5114 48.276L33.2741 41.8089C33.5827 41.5532 33.8242 41.2259 33.9775 40.8555C34.1308 40.4852 34.1912 40.083 34.1536 39.6839L33.2293 29.6225C33.1872 29.1638 33.2742 28.7026 33.4805 28.2908C33.6867 27.879 34.0039 27.5331 34.3964 27.2921C34.7889 27.0511 35.2409 26.9246 35.7014 26.9269C36.162 26.9292 36.6127 27.0603 37.0027 27.3053V27.3053Z" stroke="#B29E85" stroke-width="2.8" stroke-linecap="round" stroke-linejoin="round"/>
<path d="M3.56643 76.4749L11.308 76.8699C11.6151 76.8854 11.9214 76.826 12.2003 76.6966C12.4793 76.5672 12.7225 76.3718 12.909 76.1273L17.6224 69.9736C17.8376 69.6926 18.1272 69.4774 18.4583 69.3525C18.7894 69.2275 19.1489 69.1977 19.4961 69.2665C19.8433 69.3353 20.1643 69.4999 20.4228 69.7416C20.6812 69.9834 20.8669 70.2927 20.9587 70.6345L22.9757 78.1207C23.0562 78.4169 23.2072 78.6892 23.4159 78.9144C23.6245 79.1395 23.8846 79.3108 24.1738 79.4136L31.4862 81.9967C31.8196 82.1147 32.1134 82.3235 32.3343 82.5997C32.5553 82.8758 32.6946 83.2083 32.7365 83.5594C32.7784 83.9106 32.7213 84.2665 32.5715 84.5869C32.4218 84.9073 32.1854 85.1794 31.8891 85.3725L25.393 89.604C25.1358 89.7722 24.9231 90.0002 24.7732 90.2684C24.6232 90.5367 24.5405 90.8373 24.5319 91.1445L24.3371 98.8939C24.3281 99.2476 24.2204 99.5916 24.0261 99.8872C23.8318 100.183 23.5587 100.418 23.2376 100.567C22.9165 100.715 22.5603 100.771 22.2092 100.727C21.8582 100.684 21.5262 100.543 21.251 100.321L15.2262 95.4524C14.9872 95.2583 14.7045 95.1255 14.4026 95.0654C14.1007 95.0053 13.7887 95.0197 13.4936 95.1074L6.0627 97.3167C5.72365 97.418 5.36297 97.4223 5.02159 97.3291C4.68021 97.2358 4.3718 97.0488 4.13135 96.7891C3.8909 96.5295 3.72803 96.2076 3.66122 95.8601C3.59442 95.5126 3.62635 95.1533 3.75339 94.823L6.51824 87.5817C6.62938 87.2947 6.66852 86.9847 6.63226 86.679C6.596 86.3733 6.48544 86.0811 6.31022 85.828L1.91542 79.4425C1.71553 79.1517 1.60079 78.8108 1.58414 78.4582C1.56749 78.1057 1.64958 77.7555 1.82117 77.447C1.99276 77.1386 2.24704 76.8842 2.55538 76.7125C2.86372 76.5407 3.21388 76.4585 3.56643 76.4749Z" fill="#EDE9E3"/>
<path d="M3.56643 76.4749L11.308 76.8699C11.6151 76.8854 11.9214 76.826 12.2003 76.6966C12.4793 76.5672 12.7225 76.3718 12.909 76.1273L17.6224 69.9736C17.8376 69.6926 18.1272 69.4774 18.4583 69.3525C18.7894 69.2275 19.1489 69.1977 19.4961 69.2665C19.8433 69.3353 20.1643 69.4999 20.4228 69.7416C20.6812 69.9834 20.8669 70.2927 20.9587 70.6345L22.9757 78.1207C23.0562 78.4169 23.2072 78.6892 23.4159 78.9144C23.6245 79.1395 23.8846 79.3108 24.1738 79.4136L31.4862 81.9967C31.8196 82.1147 32.1134 82.3235 32.3343 82.5997C32.5553 82.8758 32.6946 83.2083 32.7365 83.5594C32.7784 83.9106 32.7213 84.2665 32.5715 84.5869C32.4218 84.9073 32.1854 85.1794 31.8891 85.3725L25.393 89.604C25.1358 89.7722 24.9231 90.0002 24.7732 90.2684C24.6232 90.5367 24.5405 90.8373 24.5319 91.1445L24.3371 98.8939C24.3281 99.2476 24.2204 99.5916 24.0261 99.8872C23.8318 100.183 23.5587 100.418 23.2376 100.567C22.9165 100.715 22.5603 100.771 22.2092 100.727C21.8582 100.684 21.5262 100.543 21.251 100.321L15.2262 95.4524C14.9872 95.2583 14.7045 95.1255 14.4026 95.0654C14.1007 95.0053 13.7887 95.0197 13.4936 95.1074L6.0627 97.3167C5.72365 97.418 5.36297 97.4223 5.02159 97.3291C4.68021 97.2358 4.3718 97.0488 4.13135 96.7891C3.8909 96.5295 3.72803 96.2076 3.66122 95.8601C3.59442 95.5126 3.62635 95.1533 3.75339 94.823L6.51824 87.5817C6.62938 87.2947 6.66852 86.9847 6.63226 86.679C6.596 86.3733 6.48544 86.0811 6.31022 85.828L1.91542 79.4425C1.71553 79.1517 1.60079 78.8108 1.58414 78.4582C1.56749 78.1057 1.64958 77.7555 1.82117 77.447C1.99276 77.1386 2.24704 76.8842 2.55538 76.7125C2.86372 76.5407 3.21388 76.4585 3.56643 76.4749V76.4749Z" stroke="#B29E85" stroke-width="2.8" stroke-linecap="round" stroke-linejoin="round"/>
<path d="M161.12 29.6225C161.163 29.1631 161.076 28.7009 160.869 28.2882C160.663 27.8756 160.345 27.529 159.952 27.2878C159.558 27.0466 159.105 26.9204 158.644 26.9235C158.183 26.9266 157.731 27.0588 157.341 27.3053L148.794 32.6902C148.455 32.9045 148.069 33.0329 147.669 33.0641C147.27 33.0953 146.868 33.0284 146.5 32.8692L137.216 28.88C136.792 28.6986 136.326 28.6392 135.87 28.7086C135.415 28.778 134.987 28.9734 134.637 29.2727C134.286 29.572 134.027 29.9633 133.887 30.4025C133.747 30.8416 133.732 31.3111 133.845 31.758L136.326 41.5535C136.425 41.941 136.429 42.3468 136.338 42.7362C136.246 43.1256 136.061 43.4869 135.799 43.7891L129.137 51.3859C128.833 51.7326 128.632 52.1574 128.557 52.6124C128.481 53.0673 128.535 53.5342 128.711 53.9604C128.887 54.3866 129.179 54.7551 129.553 55.0241C129.928 55.2932 130.37 55.4522 130.83 55.4831L140.913 56.1493C141.312 56.176 141.699 56.2995 142.041 56.5091C142.382 56.7188 142.667 57.0083 142.872 57.3527L148.038 66.0422C148.274 66.4389 148.616 66.7617 149.025 66.974C149.435 67.1863 149.896 67.2796 150.355 67.2434C150.815 67.2073 151.256 67.043 151.627 66.7693C151.999 66.4955 152.286 66.1233 152.457 65.6946L156.209 56.3126C156.357 55.9404 156.594 55.6099 156.898 55.3497C157.203 55.0895 157.566 54.9076 157.957 54.8196L167.813 52.5892C168.263 52.4879 168.676 52.2627 169.004 51.939C169.333 51.6154 169.564 51.2063 169.672 50.758C169.78 50.3097 169.76 49.8401 169.615 49.4024C169.47 48.9647 169.205 48.5763 168.851 48.2813L161.086 41.8142C160.777 41.5582 160.536 41.2309 160.383 40.8606C160.23 40.4903 160.169 40.0882 160.206 39.6892L161.12 29.6225Z" fill="#EDE9E3"/>
<path d="M161.12 29.6225C161.163 29.1631 161.076 28.7009 160.869 28.2882C160.663 27.8756 160.345 27.529 159.952 27.2878C159.558 27.0466 159.105 26.9204 158.644 26.9235C158.183 26.9266 157.731 27.0588 157.341 27.3053L148.794 32.6902C148.455 32.9045 148.069 33.0329 147.669 33.0641C147.27 33.0953 146.868 33.0284 146.5 32.8692L137.216 28.88C136.792 28.6978 136.326 28.6377 135.87 28.7066C135.415 28.7755 134.987 28.9705 134.636 29.2697C134.286 29.5689 134.026 29.9603 133.886 30.3996C133.746 30.8389 133.732 31.3085 133.845 31.7554L136.326 41.5535C136.425 41.941 136.429 42.3468 136.338 42.7362C136.246 43.1256 136.061 43.4869 135.799 43.7891L129.137 51.3859C128.833 51.7326 128.632 52.1574 128.557 52.6124C128.481 53.0673 128.535 53.5342 128.711 53.9604C128.887 54.3866 129.179 54.7551 129.553 55.0241C129.928 55.2932 130.37 55.4522 130.83 55.4831L140.913 56.1493C141.312 56.176 141.699 56.2995 142.041 56.5091C142.382 56.7188 142.667 57.0083 142.872 57.3527L148.038 66.0422C148.274 66.4389 148.616 66.7617 149.025 66.974C149.435 67.1863 149.896 67.2796 150.355 67.2434C150.815 67.2073 151.256 67.043 151.627 66.7693C151.999 66.4955 152.286 66.1233 152.457 65.6946L156.209 56.3126C156.357 55.9404 156.594 55.6099 156.898 55.3497C157.203 55.0895 157.566 54.9076 157.957 54.8196L167.813 52.5892C168.263 52.4879 168.676 52.2627 169.004 51.939C169.333 51.6154 169.564 51.2063 169.672 50.758C169.78 50.3097 169.76 49.8401 169.615 49.4024C169.47 48.9647 169.205 48.5763 168.851 48.2813L161.086 41.8142C160.777 41.5582 160.536 41.2309 160.383 40.8606C160.23 40.4903 160.169 40.0882 160.206 39.6892L161.12 29.6225Z" stroke="#B29E85" stroke-width="2.8" stroke-linecap="round" stroke-linejoin="round"/>
<path d="M191.29 78.6462L191.288 78.6491L171.22 91.1107L169.82 91.1445L171.22 91.1088L171.22 91.1098C171.207 90.575 171.063 90.0515 170.802 89.5845C170.542 89.118 170.171 88.722 169.723 88.4308C169.722 88.4304 169.722 88.43 169.721 88.4296L163.23 84.1996L163.227 84.1974C163.149 84.1473 163.087 84.0764 163.048 83.9929C163.009 83.9094 162.994 83.8165 163.005 83.7249C163.016 83.6333 163.052 83.5466 163.11 83.4747L162.018 82.5985L163.11 83.4747C163.168 83.4027 163.245 83.3484 163.332 83.3179L163.335 83.3167L170.645 80.7336L170.647 80.7328C171.149 80.5543 171.601 80.2569 171.963 79.8659C172.325 79.475 172.588 79.0022 172.727 78.4878L172.728 78.4844L174.743 70.9983L174.743 70.9976C174.767 70.9082 174.815 70.8273 174.883 70.7641C174.951 70.7008 175.035 70.6578 175.125 70.6398C175.216 70.6218 175.31 70.6296 175.397 70.6623C175.483 70.695 175.559 70.7512 175.615 70.8247L175.616 70.8252L180.328 76.974C180.329 76.9749 180.329 76.9759 180.33 76.9768C180.654 77.4024 181.077 77.7425 181.562 77.9676C182.048 78.193 182.582 78.2961 183.117 78.268C183.117 78.268 183.118 78.268 183.118 78.268L190.857 77.8731L190.859 77.873C190.951 77.8682 191.043 77.8892 191.123 77.9338C191.204 77.9784 191.271 78.0447 191.316 78.1252L192.538 77.4429L191.316 78.1252C191.36 78.2057 191.382 78.2971 191.377 78.3893C191.373 78.4814 191.343 78.5704 191.29 78.6462ZM178.254 94.3657L179.136 95.4524L178.257 94.3629L178.256 94.3642C178.255 94.3647 178.254 94.3652 178.254 94.3657ZM189.301 95.3226L189.301 95.3228L190.609 94.823L189.301 95.3226ZM186.534 88.0824L187.842 87.5817L186.534 88.0815C186.534 88.0818 186.534 88.0821 186.534 88.0824Z" fill="#B0D9FF" stroke="#B29E85" stroke-width="2.8"/>
<path d="M192.442 79.4426C192.643 79.1515 192.759 78.8099 192.776 78.4565C192.793 78.103 192.71 77.7519 192.538 77.4429C192.366 77.1339 192.11 76.8795 191.8 76.7084C191.49 76.5373 191.139 76.4564 190.786 76.4749L183.044 76.8699C182.737 76.8861 182.43 76.827 182.151 76.6975C181.872 76.5681 181.629 76.3724 181.443 76.1274L176.727 69.9736C176.512 69.6933 176.222 69.4789 175.891 69.3544C175.561 69.2299 175.202 69.2004 174.855 69.2691C174.508 69.3378 174.188 69.5021 173.929 69.7434C173.671 69.9847 173.486 70.2933 173.393 70.6345L171.376 78.1207C171.296 78.4169 171.145 78.6892 170.936 78.9144C170.728 79.1395 170.467 79.3108 170.178 79.4136L162.868 81.9968C162.534 82.1139 162.24 82.3224 162.018 82.5985C161.797 82.8747 161.657 83.2075 161.615 83.5591C161.573 83.9106 161.63 84.2669 161.781 84.5875C161.931 84.9081 162.168 85.18 162.466 85.3725L168.959 89.6041C169.217 89.7714 169.43 89.9992 169.58 90.2676C169.73 90.5361 169.813 90.837 169.82 91.1445L170.018 98.894C170.027 99.2476 170.134 99.5917 170.329 99.8873C170.523 100.183 170.796 100.418 171.117 100.567C171.438 100.715 171.794 100.771 172.145 100.727C172.497 100.684 172.828 100.543 173.104 100.321L179.136 95.4524C179.375 95.2586 179.657 95.1259 179.959 95.0658C180.26 95.0057 180.572 95.02 180.866 95.1074L188.3 97.3167C188.639 97.417 188.999 97.4205 189.34 97.3269C189.681 97.2333 189.989 97.0462 190.229 96.7869C190.469 96.5275 190.632 96.2062 190.699 95.8592C190.766 95.5122 190.735 95.1533 190.609 94.823L187.842 87.5818C187.732 87.2945 187.693 86.9847 187.729 86.6792C187.766 86.3738 187.876 86.0816 188.05 85.828L192.442 79.4426Z" fill="#EDE9E3" stroke="#B29E85" stroke-width="2.8" stroke-linecap="round" stroke-linejoin="round"/>
</svg>
