<svg width="247" height="216" viewBox="0 0 247 216" fill="none" xmlns="http://www.w3.org/2000/svg">
<path d="M230.518 184.132H16.3376C7.31466 184.132 0 176.182 0 166.373V157.021H246.857V166.373C246.857 176.182 239.542 184.132 230.518 184.132Z" fill="#B19E85"/>
<path d="M148.418 207.914H98V184.132H148.418V207.914Z" fill="#9B8C7C"/>
<path d="M246.912 157.496H0.0554298V12.5344C0.0560227 -1.51987 -1.47282 0.0599365 11.4844 0.0599365H235.482C248.428 0.0599365 246.912 -1.59917 246.912 12.5344C246.912 26.668 246.912 157.496 246.912 157.496Z" fill="#9B8C7C"/>
<path d="M237.308 147.962H9.00098V11.454H237.308V147.962Z" fill="#EBE8E2"/>
<rect width="81.8592" height="57.3014" rx="3.4505" transform="matrix(-1 0 0 1 119.86 80.1486)" fill="white"/>
<rect width="88.3228" height="57.0893" rx="3.4505" transform="matrix(-1 0 0 1 208.269 22.847)" fill="white"/>
<ellipse cx="166.147" cy="47.0853" rx="4.66974" ry="5.25346" stroke="#9B8C7C" stroke-width="1.59438"/>
<path d="M175.487 61.6781C175.487 65.7642 170.817 64.5967 166.147 64.5967C161.477 64.5967 156.808 65.7642 156.808 61.6781C156.808 59.3433 160.989 56.4247 166.147 56.4247C171.305 56.4247 175.487 59.3433 175.487 61.6781Z" stroke="#9B8C7C" stroke-width="1.59438"/>
<ellipse cx="79.2967" cy="104.623" rx="4.66974" ry="5.25346" stroke="#9B8C7C" stroke-width="1.59438"/>
<path d="M88.636 119.216C88.636 123.302 83.9663 122.135 79.2965 122.135C74.6268 122.135 69.957 123.302 69.957 119.216C69.957 116.881 74.1385 113.963 79.2965 113.963C84.4546 113.963 88.636 116.881 88.636 119.216Z" stroke="#9B8C7C" stroke-width="1.59438"/>
<path d="M170.652 216H76C76 211.534 79.2603 207.914 83.2843 207.914H163.368C167.391 207.914 170.652 211.534 170.652 216Z" fill="#B19E85"/>
<path d="M130.991 51.2317L127.289 59.4788C127.244 59.5784 127.229 59.6887 127.245 59.7968C127.26 59.9049 127.307 60.0062 127.378 60.089C127.449 60.1718 127.543 60.2325 127.647 60.2641C127.752 60.2957 127.863 60.2969 127.968 60.2675L134.769 58.3662C134.85 58.3434 134.925 58.3032 134.989 58.2482C135.053 58.1932 135.104 58.1249 135.139 58.0481C135.173 57.9713 135.19 57.8878 135.189 57.8036C135.188 57.7193 135.168 57.6365 135.131 57.5607L132.032 51.2151C131.984 51.117 131.909 51.0345 131.816 50.9774C131.723 50.9203 131.616 50.8909 131.506 50.8926C131.397 50.8944 131.291 50.9272 131.2 50.9873C131.108 51.0473 131.036 51.1321 130.991 51.2317Z" fill="#9B8C7C"/>
<path d="M115.749 72.9244C114.283 69.955 114.107 66.3781 115.568 63.1229C116.654 60.7056 118.541 58.7374 120.91 57.551C123.279 56.3647 125.986 56.0329 128.571 56.6119L129.529 54.4788C126.97 53.815 124.275 53.9 121.763 54.7238C119.251 55.5476 117.029 57.0754 115.361 59.1257C113.692 61.176 112.648 63.6623 112.351 66.289C112.055 68.9157 112.52 71.5723 113.69 73.9426C113.753 74.083 113.845 74.209 113.958 74.3133C114.071 74.4176 114.205 74.4981 114.35 74.5498C114.495 74.6016 114.649 74.6237 114.803 74.6147C114.957 74.6057 115.107 74.5659 115.245 74.4976C115.384 74.4293 115.507 74.334 115.607 74.2172C115.708 74.1004 115.784 73.9646 115.831 73.8178C115.878 73.671 115.895 73.5163 115.881 73.3628C115.867 73.2093 115.822 73.0602 115.749 72.9244Z" fill="#9B8C7C"/>
<path d="M113.999 107.462L118.519 99.633C118.574 99.5384 118.6 99.4302 118.596 99.321C118.591 99.2119 118.555 99.1064 118.493 99.0169C118.43 98.9273 118.344 98.8574 118.243 98.8153C118.142 98.7733 118.031 98.7608 117.924 98.7794L110.965 99.9809C110.882 99.9952 110.803 100.028 110.734 100.076C110.665 100.124 110.607 100.187 110.565 100.26C110.523 100.333 110.498 100.414 110.49 100.498C110.483 100.582 110.494 100.666 110.523 100.745L112.962 107.373C113 107.475 113.066 107.565 113.153 107.631C113.24 107.697 113.344 107.738 113.453 107.747C113.561 107.756 113.671 107.734 113.767 107.684C113.864 107.633 113.945 107.556 113.999 107.462Z" fill="#9B8C7C"/>
<path d="M131.364 87.4276C132.522 90.5305 132.334 94.1068 130.55 97.197C129.225 99.4916 127.148 101.258 124.67 102.198C122.193 103.138 119.466 103.193 116.953 102.355L115.784 104.38C118.262 105.3 120.952 105.489 123.534 104.924C126.117 104.359 128.483 103.065 130.35 101.195C132.218 99.3242 133.51 96.9566 134.071 94.3735C134.632 91.7904 134.44 89.1005 133.516 86.6236C133.467 86.4776 133.389 86.3429 133.287 86.2276C133.185 86.1123 133.06 86.0188 132.921 85.9526C132.782 85.8863 132.631 85.8487 132.477 85.8421C132.323 85.8354 132.169 85.8597 132.025 85.9136C131.88 85.9676 131.748 86.05 131.636 86.1559C131.525 86.2619 131.435 86.3893 131.373 86.5306C131.312 86.6718 131.279 86.824 131.277 86.9781C131.276 87.1322 131.305 87.2851 131.364 87.4276Z" fill="#9B8C7C"/>
</svg>
